<svg xmlns="http://www.w3.org/2000/svg" xmlns:xlink="http://www.w3.org/1999/xlink" version="1.1" x="0px" y="0px" viewBox="0 0 16 20" style="enable-background:new 0 0 16 16;" xml:space="preserve"><style type="text/css">
	.st0{fill:#010101;}
</style><g><path d="M8,0C3.6,0,0,3.6,0,8s3.6,8,8,8s8-3.6,8-8S12.4,0,8,0z M10.6,8.7H8.7v1.9c0,0.4-0.3,0.7-0.7,0.7S7.3,11,7.3,10.6V8.7H5.4   C5,8.7,4.7,8.4,4.7,8S5,7.3,5.4,7.3h1.9V5.4C7.3,5,7.6,4.7,8,4.7S8.7,5,8.7,5.4v1.9h1.9c0.4,0,0.7,0.3,0.7,0.7S11,8.7,10.6,8.7z"/></g><text x="0" y="31" fill="#000000" font-size="5px" font-weight="bold" font-family="'Helvetica Neue', Helvetica, Arial-Unicode, Arial, Sans-serif">Created by Basu</text><text x="0" y="36" fill="#000000" font-size="5px" font-weight="bold" font-family="'Helvetica Neue', Helvetica, Arial-Unicode, Arial, Sans-serif">from the Noun Project</text></svg>